<?xml version="1.0" encoding="UTF-8"?>
<svg width="110px" height="23px" viewBox="0 0 110 23" version="1.1" xmlns="http://www.w3.org/2000/svg" xmlns:xlink="http://www.w3.org/1999/xlink">
    <!-- Generator: sketchtool 52.4 (67378) - http://www.bohemiancoding.com/sketch -->
    <title>740EC841-C905-449B-B052-CA271C2B3CDD</title>
    <desc>Created with sketchtool.</desc>
    <g id="Page-1" stroke="none" stroke-width="1" fill="none" fill-rule="evenodd">
        <g id="style-guide" transform="translate(-209.000000, -599.000000)" fill="#7A88A4">
            <g id="logo-footer" transform="translate(209.000000, 599.000000)">
                <path d="M13.3437745,15.6199562 C11.415837,17.5462671 8.36950154,17.6781124 6.28970394,16.0114967 L8.5921535,13.713051 C7.01360824,11.6366305 7.17231912,8.6618356 9.06771523,6.76862865 C10.9631113,4.87370942 13.9369422,4.71617999 16.0127435,6.29147429 L13.7371263,8.5676604 C15.4018778,10.6492178 15.272283,13.6913622 13.3437745,15.6199562 M22.3828729,10.6075524 C22.31779,9.34617541 22.0397606,8.14130357 21.5904603,7.02090404 C21.5767587,6.98380472 21.5613443,6.95070071 21.5459299,6.91417214 C21.5316574,6.88049738 21.5185266,6.84396881 21.5013996,6.80744025 C20.5091711,4.4930133 18.7639223,2.57868827 16.571086,1.3743872 C15.9202573,1.01823371 15.2288944,0.720868369 14.505561,0.498272435 C13.4613804,0.174081435 12.3492625,4.61852778e-14 11.1966104,4.61852778e-14 C6.57972238,4.61852778e-14 2.60452867,2.80642104 0.89296314,6.80458645 C0.875265165,6.84396881 0.859850799,6.88049738 0.842723725,6.91987973 C0.831876579,6.95070071 0.81817492,6.98380472 0.806756871,7.01690873 C-0.26825243,9.69376752 -0.268823333,12.7016664 0.804473262,15.3779544 C0.81817492,15.4139122 0.831876579,15.4510116 0.847290945,15.4881109 C0.863276213,15.5223564 0.875265165,15.5571727 0.891250433,15.589706 C2.02563359,18.2403098 4.15624151,20.3709525 6.80694155,21.5033379 C6.83948299,21.5193192 6.87316624,21.5330174 6.90342407,21.543291 C6.94167453,21.5604138 6.98277951,21.5786781 7.01817546,21.590664 C9.35202465,22.5255669 11.9439217,22.6442848 14.3457083,21.947959 C15.0593364,21.7384905 15.7569792,21.4571065 16.4237932,21.105519 C16.8902205,20.8606635 17.3446589,20.5787087 17.7791156,20.263079 C18.8609758,21.5678337 20.4948985,22.4 22.3212155,22.4 L22.4,22.4 L22.4,11.1965754 C22.4,11.0002344 22.3954328,10.8027519 22.3828729,10.6075524" id="Fill-20"></path>
                <path d="M33.4579516,16.8727173 L30.7374997,16.8727173 L34.271019,6.4 L37.6409022,6.4 L41.1744215,16.8727173 L38.4539696,16.8727173 L37.7636293,14.6738557 L34.1482919,14.6738557 L33.4579516,16.8727173 Z M34.7517004,12.7511303 L37.1602208,12.7511303 L35.9943128,9.03863385 L35.9124947,9.03863385 L34.7517004,12.7511303 Z M44.6251105,6.4 L44.6251105,16.8727173 L42.1245447,16.8727173 L42.1245447,6.4 L44.6251105,6.4 Z M50.4638586,9.01817932 L50.4638586,10.8590867 L49.0473827,10.8590867 L49.0473827,14.4028333 C49.0473827,14.8681737 49.2774961,15.0318099 49.681473,15.0318099 C49.8706774,15.0318099 50.1212453,14.9806736 50.2286316,14.9551055 L50.6070403,16.7602174 C50.3666996,16.8318082 49.932041,16.9545354 49.3286324,16.9852172 C47.5644296,17.0670353 46.531476,16.2693088 46.5468169,14.6789694 L46.5468169,10.8590867 L45.5087497,10.8590867 L45.5087497,9.01817932 L46.5468169,9.01817932 L46.5468169,7.13636293 L49.0473827,7.13636293 L49.0473827,9.01817932 L50.4638586,9.01817932 Z M55.1520412,17.0210126 C52.6821572,17.0210126 51.1787495,15.4920368 51.1787495,12.9761301 C51.1787495,10.5420415 52.7026117,8.91590669 55.0753367,8.91590669 C57.30488,8.91590669 58.8798785,10.3374962 58.8798785,12.9249938 L58.8798785,13.5488568 L53.6435199,13.5488568 L53.6435199,13.615334 C53.6435199,14.5766967 54.2367011,15.2159007 55.1980639,15.2159007 C55.8526087,15.2159007 56.3639718,14.934651 56.5582898,14.4130605 L58.8543104,14.4795377 C58.567947,16.0238545 57.2128347,17.0210126 55.1520412,17.0210126 Z M53.6435199,12.0965855 L56.5531762,12.0965855 C56.5429489,11.2937453 55.9497677,10.7210186 55.126473,10.7210186 C54.2980647,10.7210186 53.6793153,11.3141999 53.6435199,12.0965855 Z M62.0032926,9.01817932 L63.2970414,11.6056769 L64.6368129,9.01817932 L67.1578332,9.01817932 L64.9640853,12.9454483 L67.2396513,16.8727173 L64.7390855,16.8727173 L63.2970414,14.2647652 L61.8907927,16.8727173 L59.3544315,16.8727173 L61.6351112,12.9454483 L59.4669314,9.01817932 L62.0032926,9.01817932 Z M67.5352268,8.45567986 L67.5352268,6.4 L76.3869229,6.4 L76.3869229,8.45567986 L73.2113578,8.45567986 L73.2113578,16.8727173 L70.7159056,16.8727173 L70.7159056,8.45567986 L67.5352268,8.45567986 Z M76.6313628,16.8727173 L76.6313628,9.01817932 L79.0603378,9.01817932 L79.0603378,10.4499961 L79.1421559,10.4499961 C79.4285193,9.41192895 80.1137459,8.91079306 80.972836,8.91079306 C81.3870401,8.91079306 81.7705625,9.02329295 82.0722667,9.19715642 L81.3359038,11.2528363 C81.1160177,11.1505637 80.875677,11.0585183 80.5739727,11.0585183 C79.7864735,11.0585183 79.1370423,11.6772677 79.1319286,12.6079486 L79.1319286,16.8727173 L76.6313628,16.8727173 Z M84.7610198,17.0056717 C83.2576122,17.0056717 82.1786359,16.2488542 82.1786359,14.6943103 C82.1786359,12.9556756 83.5081801,12.3676079 85.0985195,12.2346535 C86.4382909,12.11704 86.9598813,12.0147674 86.9598813,11.534086 L86.9598813,11.5085179 C86.9598813,10.9818138 86.5712454,10.6852232 85.9576096,10.6852232 C85.2979511,10.6852232 84.883747,10.9920411 84.7763607,11.493177 L82.4701129,11.4113589 C82.6695445,9.97954204 83.8661343,8.91590669 85.9780641,8.91590669 C87.977494,8.91590669 89.4553335,9.87215578 89.4553335,11.534086 L89.4553335,16.8727173 L87.103063,16.8727173 L87.103063,15.7784001 L87.0416995,15.7784001 C86.6121544,16.5812403 85.8553369,17.0056717 84.7610198,17.0056717 Z M85.5331782,15.3693096 C86.3309047,15.3693096 86.9752222,14.8477192 86.9752222,14.0806745 L86.9752222,13.3340843 C86.6939725,13.4823796 86.1212458,13.5846522 85.6559053,13.6511294 C84.9451105,13.7585157 84.5462473,14.0653336 84.5462473,14.5715831 C84.5462473,15.0931735 84.9553378,15.3693096 85.5331782,15.3693096 Z M98.132151,9.01817932 L95.4372672,16.8727173 L92.5736336,16.8727173 L89.8838634,9.01817932 L92.5173836,9.01817932 L93.9645413,14.4284014 L94.0463595,14.4284014 L95.4986308,9.01817932 L98.132151,9.01817932 Z M102.324314,17.0210126 C99.8544299,17.0210126 98.3510222,15.4920368 98.3510222,12.9761301 C98.3510222,10.5420415 99.8748844,8.91590669 102.247609,8.91590669 C104.477153,8.91590669 106.052151,10.3374962 106.052151,12.9249938 L106.052151,13.5488568 L100.815793,13.5488568 L100.815793,13.615334 C100.815793,14.5766967 101.408974,15.2159007 102.370337,15.2159007 C103.024881,15.2159007 103.536245,14.934651 103.730563,14.4130605 L106.026583,14.4795377 C105.74022,16.0238545 104.385107,17.0210126 102.324314,17.0210126 Z M100.815793,12.0965855 L103.725449,12.0965855 C103.715222,11.2937453 103.12204,10.7210186 102.298746,10.7210186 C101.470337,10.7210186 100.851588,11.3141999 100.815793,12.0965855 Z M109.656247,6.4 L109.656247,16.8727173 L107.155681,16.8727173 L107.155681,6.4 L109.656247,6.4 Z" id="AltexTravel"></path>
            </g>
        </g>
    </g>
</svg>