<?xml version="1.0" encoding="UTF-8"?>
<svg width="136px" height="28px" viewBox="0 0 136 28" version="1.1" xmlns="http://www.w3.org/2000/svg" xmlns:xlink="http://www.w3.org/1999/xlink">
    <!-- Generator: sketchtool 52.4 (67378) - http://www.bohemiancoding.com/sketch -->
    <title>6AEDA960-6A7E-421B-B331-1652610C6AF2</title>
    <desc>Created with sketchtool.</desc>
    <g id="Page-1" stroke="none" stroke-width="1" fill="none" fill-rule="evenodd">
        <g id="search-min-1200" transform="translate(-390.000000, -18.000000)">
            <g id="header">
                <g id="logo">
                    <g transform="translate(390.000000, 18.000000)">
                        <path d="M16.6797182,19.5249452 C14.2697962,21.9328339 10.4618769,22.0976405 7.86212993,20.0143709 L10.7401919,17.1413138 C8.7670103,14.5457881 8.9653989,10.8272945 11.334644,8.46078581 C13.7038892,6.09213678 17.4211777,5.89522499 20.0159293,7.86434286 L17.1714079,10.7095755 C19.2523473,13.3115222 19.0903537,17.1142027 16.6797182,19.5249452 M27.9785912,13.2594405 C27.8972376,11.6827193 27.5497007,10.1766295 26.9880754,8.77613005 C26.9709483,8.7297559 26.9516804,8.68837589 26.9324124,8.64271518 C26.9145717,8.60062172 26.8981583,8.55496102 26.8767494,8.50930031 C25.6364639,5.61626663 23.4549029,3.22336034 20.7138576,1.717984 C19.9003216,1.27279213 19.036118,0.901085461 18.1319513,0.622840544 C16.8267255,0.217601794 15.4365781,0 13.9957631,0 C8.22465298,0 3.25566083,3.5080263 1.11620393,8.50573307 C1.09408146,8.55496102 1.0748135,8.60062172 1.05340466,8.64984967 C1.03984572,8.68837589 1.02271865,8.7297559 1.00844609,8.77113591 C-0.335315538,12.1172094 -0.336029166,15.877083 1.00559158,19.2224431 C1.02271865,19.2673903 1.03984572,19.3137645 1.05911368,19.3601386 C1.07909527,19.4029455 1.09408146,19.4464659 1.11406304,19.4871324 C2.53204199,22.8003873 5.19530189,25.4636906 8.50867694,26.8791724 C8.54935374,26.899149 8.5914578,26.9162717 8.62928008,26.9291138 C8.67709316,26.9505173 8.72847438,26.9733476 8.77271932,26.98833 C11.6900308,28.1569587 14.9299022,28.305356 17.9321354,27.4349488 C18.8241705,27.1731132 19.696224,26.8213831 20.5297415,26.3818988 C21.1127756,26.0758294 21.6808236,25.7233858 22.2238945,25.3288488 C23.5762197,26.9597921 25.6186232,28 27.9015193,28 L28,28 L28,13.9957193 C28,13.750293 27.994291,13.5034398 27.9785912,13.2594405" id="Fill-20" fill="#3E73F9"></path>
                        <text id="AltexTravel" font-family="WorkSans-SemiBold, Work Sans" font-size="18" font-weight="500" letter-spacing="-0.100000001" fill="#556B7A">
                            <tspan x="38" y="21">AltexTravel</tspan>
                        </text>
                    </g>
                </g>
            </g>
        </g>
    </g>
</svg>