<?xml version="1.0" encoding="UTF-8"?>
<svg width="138px" height="29px" viewBox="0 0 138 29" version="1.1" xmlns="http://www.w3.org/2000/svg" xmlns:xlink="http://www.w3.org/1999/xlink">
    <!-- Generator: sketchtool 52.4 (67378) - http://www.bohemiancoding.com/sketch -->
    <title>246B287D-166B-46B5-8482-9098D127027B</title>
    <desc>Created with sketchtool.</desc>
    <g id="Page-1" stroke="none" stroke-width="1" fill="none" fill-rule="evenodd">
        <g id="style-guide" transform="translate(-40.000000, -596.000000)">
            <g id="logo" transform="translate(40.000000, 596.142136)">
                <path d="M16.6797182,19.5249452 C14.2697962,21.9328339 10.4618769,22.0976405 7.86212993,20.0143709 L10.7401919,17.1413138 C8.7670103,14.5457881 8.9653989,10.8272945 11.334644,8.46078581 C13.7038892,6.09213678 17.4211777,5.89522499 20.0159293,7.86434286 L17.1714079,10.7095755 C19.2523473,13.3115222 19.0903537,17.1142027 16.6797182,19.5249452 M27.9785912,13.2594405 C27.8972376,11.6827193 27.5497007,10.1766295 26.9880754,8.77613005 C26.9709483,8.7297559 26.9516804,8.68837589 26.9324124,8.64271518 C26.9145717,8.60062172 26.8981583,8.55496102 26.8767494,8.50930031 C25.6364639,5.61626663 23.4549029,3.22336034 20.7138576,1.717984 C19.9003216,1.27279213 19.036118,0.901085461 18.1319513,0.622840544 C16.8267255,0.217601794 15.4365781,0 13.9957631,0 C8.22465298,0 3.25566083,3.5080263 1.11620393,8.50573307 C1.09408146,8.55496102 1.0748135,8.60062172 1.05340466,8.64984967 C1.03984572,8.68837589 1.02271865,8.7297559 1.00844609,8.77113591 C-0.335315538,12.1172094 -0.336029166,15.877083 1.00559158,19.2224431 C1.02271865,19.2673903 1.03984572,19.3137645 1.05911368,19.3601386 C1.07909527,19.4029455 1.09408146,19.4464659 1.11406304,19.4871324 C2.53204199,22.8003873 5.19530189,25.4636906 8.50867694,26.8791724 C8.54935374,26.899149 8.5914578,26.9162717 8.62928008,26.9291138 C8.67709316,26.9505173 8.72847438,26.9733476 8.77271932,26.98833 C11.6900308,28.1569587 14.9299022,28.305356 17.9321354,27.4349488 C18.8241705,27.1731132 19.696224,26.8213831 20.5297415,26.3818988 C21.1127756,26.0758294 21.6808236,25.7233858 22.2238945,25.3288488 C23.5762197,26.9597921 25.6186232,28 27.9015193,28 L28,28 L28,13.9957193 C28,13.750293 27.994291,13.5034398 27.9785912,13.2594405" id="Fill-20" fill="#6DB3F1"></path>
                <path d="M41.8224395,21 L38.4218746,21 L42.8387738,7.90910339 L47.0511277,7.90910339 L51.4680269,21 L48.067462,21 L47.2045367,18.2514231 L42.6853648,18.2514231 L41.8224395,21 Z M43.4396255,15.8480163 L46.450276,15.8480163 L44.9928911,11.2073957 L44.8906184,11.2073957 L43.4396255,15.8480163 Z M55.8563881,7.90910339 L55.8563881,21 L52.7306809,21 L52.7306809,7.90910339 L55.8563881,7.90910339 Z M63.4798233,11.1818275 L63.4798233,13.4829617 L61.7092284,13.4829617 L61.7092284,17.912645 C61.7092284,18.4943206 61.9968702,18.6988658 62.5018413,18.6988658 C62.7383468,18.6988658 63.0515567,18.6349454 63.1857895,18.6029852 L63.6588004,20.8593751 C63.3583746,20.9488637 62.8150512,21.1022726 62.0607906,21.1406249 C59.855537,21.2428975 58.5643451,20.2457394 58.5835212,18.2578151 L58.5835212,13.4829617 L57.2859372,13.4829617 L57.2859372,11.1818275 L58.5835212,11.1818275 L58.5835212,8.82955706 L61.7092284,8.82955706 L61.7092284,11.1818275 L63.4798233,11.1818275 Z M69.4150515,21.1853691 C66.3276965,21.1853691 64.4484369,19.2741494 64.4484369,16.129266 C64.4484369,13.0866553 66.3532646,11.0539868 69.3191709,11.0539868 C72.1061001,11.0539868 74.0748482,12.8309737 74.0748482,16.0653456 L74.0748482,16.8451744 L67.5293999,16.8451744 L67.5293999,16.9282709 C67.5293999,18.1299743 68.2708765,18.9289792 69.4725799,18.9289792 C70.2907609,18.9289792 70.9299648,18.5774171 71.1728623,17.9254291 L74.042888,18.0085256 C73.6849338,19.9389215 71.9910434,21.1853691 69.4150515,21.1853691 Z M67.5293999,15.0298352 L71.1664703,15.0298352 C71.1536862,14.0262851 70.4122096,13.3103767 69.3830913,13.3103767 C68.3475809,13.3103767 67.5741442,14.0518532 67.5293999,15.0298352 Z M77.5541158,11.1818275 L79.1713018,14.4161995 L80.8460161,11.1818275 L83.9972915,11.1818275 L81.2551066,16.0909138 L84.0995641,21 L80.9738569,21 L79.1713018,17.7400599 L77.413491,21 L74.2430395,21 L77.093889,16.0909138 L74.3836643,11.1818275 L77.5541158,11.1818275 Z M84.2940336,10.4787032 L84.2940336,7.90910339 L95.3586537,7.90910339 L95.3586537,10.4787032 L91.3891972,10.4787032 L91.3891972,21 L88.269882,21 L88.269882,10.4787032 L84.2940336,10.4787032 Z M95.7392036,21 L95.7392036,11.1818275 L98.7754223,11.1818275 L98.7754223,12.9715986 L98.8776949,12.9715986 C99.2356491,11.6740146 100.092182,11.0475947 101.166045,11.0475947 C101.6838,11.0475947 102.163203,11.1882196 102.540333,11.4055489 L101.61988,13.9751487 C101.345022,13.847308 101.044596,13.7322512 100.667466,13.7322512 C99.6830919,13.7322512 98.8713029,14.505688 98.8649109,15.6690392 L98.8649109,21 L95.7392036,21 Z M105.976275,21.166193 C104.097015,21.166193 102.748295,20.2201712 102.748295,18.2769912 C102.748295,16.1036979 104.410225,15.3686133 106.398149,15.2024203 C108.072864,15.0554034 108.724852,14.9275626 108.724852,14.3267109 L108.724852,14.2947507 C108.724852,13.6363707 108.239057,13.2656324 107.472012,13.2656324 C106.647439,13.2656324 106.129684,13.6491547 105.995451,14.2755746 L103.112641,14.173302 C103.361931,12.3835309 104.857668,11.0539868 107.49758,11.0539868 C109.996868,11.0539868 111.844167,12.2492981 111.844167,14.3267109 L111.844167,21 L108.903829,21 L108.903829,19.6321036 L108.827124,19.6321036 C108.290193,20.6356538 107.344171,21.166193 105.976275,21.166193 Z M106.941473,19.1207404 C107.938631,19.1207404 108.744028,18.4687524 108.744028,17.5099465 L108.744028,16.5767088 C108.392466,16.7620779 107.676557,16.8899187 107.094882,16.9730152 C106.206388,17.107248 105.707809,17.4907704 105.707809,18.1235823 C105.707809,18.7755703 106.219172,19.1207404 106.941473,19.1207404 Z M122.765189,11.1818275 L119.396584,21 L115.817042,21 L112.454829,11.1818275 L115.74673,11.1818275 L117.555677,17.9446052 L117.657949,17.9446052 L119.473289,11.1818275 L122.765189,11.1818275 Z M127.830392,21.1853691 C124.743037,21.1853691 122.863778,19.2741494 122.863778,16.129266 C122.863778,13.0866553 124.768606,11.0539868 127.734512,11.0539868 C130.521441,11.0539868 132.490189,12.8309737 132.490189,16.0653456 L132.490189,16.8451744 L125.944741,16.8451744 L125.944741,16.9282709 C125.944741,18.1299743 126.686217,18.9289792 127.887921,18.9289792 C128.706102,18.9289792 129.345306,18.5774171 129.588203,17.9254291 L132.458229,18.0085256 C132.100275,19.9389215 130.406384,21.1853691 127.830392,21.1853691 Z M125.944741,15.0298352 L129.581811,15.0298352 C129.569027,14.0262851 128.827551,13.3103767 127.798432,13.3103767 C126.762922,13.3103767 125.989485,14.0518532 125.944741,15.0298352 Z M137.070309,7.90910339 L137.070309,21 L133.944601,21 L133.944601,7.90910339 L137.070309,7.90910339 Z" id="AltexTravel" fill="#556B7A"></path>
            </g>
        </g>
    </g>
</svg>