<svg width="0" height="0" class="hidden" xmlns="http://www.w3.org/2000/svg">
  <symbol viewBox="0 0 12 8" xmlns="http://www.w3.org/2000/svg" id="email">
    <title>368EE81F-BBBB-4FF6-B364-093D7EA2F544</title>
    <g stroke="#7A88A4" fill="none">
      <rect x=".5" y=".5" width="11" height="7" rx="1"></rect>
      <path d="M11.5.5L6 4.5.5.5"></path>
    </g>
  </symbol>
  <symbol viewBox="0 0 138 29" xmlns="http://www.w3.org/2000/svg" id="logo">
    <title>246B287D-166B-46B5-8482-9098D127027B</title>
    <g fill="none" fill-rule="evenodd">
      <path d="M16.68 19.667a6.626 6.626 0 0 1-8.818.49l2.878-2.874a6.619 6.619 0 0 1 .595-8.68 6.626 6.626 0 0 1 8.68-.597l-2.844 2.846a6.623 6.623 0 0 1-.491 8.815m11.299-6.265a13.954 13.954 0 0 0-.99-4.484c-.018-.046-.037-.087-.057-.133-.017-.042-.034-.088-.055-.134a14.1 14.1 0 0 0-6.163-6.79 13.901 13.901 0 0 0-6.718-1.72c-5.771 0-10.74 3.508-12.88 8.506l-.063.144c-.013.039-.03.08-.045.121a14.062 14.062 0 0 0-.002 10.452l.053.137c.02.043.035.087.055.127a14.09 14.09 0 0 0 7.659 7.501 14.118 14.118 0 0 0 9.16.447 14.068 14.068 0 0 0 4.29-2.106 7.36 7.36 0 0 0 5.679 2.671H28V14.138c0-.246-.006-.492-.021-.736"
            fill="#6DB3F1"></path>
      <path d="M41.822 21.142h-3.4l4.417-13.09h4.212l4.417 13.09h-3.4l-.863-2.748h-4.52l-.863 2.748zm1.618-5.152h3.01l-1.457-4.64h-.102l-1.451 4.64zm12.416-7.939v13.091h-3.125V8.052h3.125zm7.624 3.273v2.301h-1.77v4.43c0 .581.287.786.792.786.236 0 .55-.064.684-.096l.473 2.257c-.3.089-.844.242-1.598.28-2.205.103-3.497-.894-3.477-2.882v-4.775h-1.298v-2.301h1.298V8.972h3.125v2.352h1.77zm5.935 10.004c-3.087 0-4.967-1.912-4.967-5.057 0-3.042 1.905-5.075 4.871-5.075 2.787 0 4.756 1.777 4.756 5.011v.78h-6.546v.083c0 1.202.742 2.001 1.944 2.001.818 0 1.457-.351 1.7-1.003l2.87.083c-.358 1.93-2.052 3.177-4.628 3.177zm-1.886-6.156h3.637c-.012-1.004-.754-1.72-1.783-1.72-1.035 0-1.809.742-1.854 1.72zm10.025-3.848l1.617 3.234 1.675-3.234h3.151l-2.742 4.909 2.845 4.91h-3.126l-1.803-3.26-1.758 3.26h-3.17l2.85-4.91-2.71-4.909h3.171zm6.74-.703V8.05h11.065v2.57h-3.97v10.521h-3.12v-10.52h-3.975zm11.445 10.521v-9.818h3.036v1.79h.103c.358-1.298 1.214-1.924 2.288-1.924.518 0 .997.14 1.374.358l-.92 2.57c-.275-.129-.575-.244-.953-.244-.984 0-1.796.774-1.802 1.937v5.331h-3.126zm10.237.166c-1.879 0-3.228-.946-3.228-2.889 0-2.173 1.662-2.908 3.65-3.074 1.675-.147 2.327-.275 2.327-.876v-.032c0-.658-.486-1.03-1.253-1.03-.825 0-1.342.384-1.477 1.01l-2.882-.102c.249-1.79 1.745-3.119 4.385-3.119 2.499 0 4.346 1.195 4.346 3.273v6.673h-2.94v-1.368h-.077c-.537 1.004-1.483 1.534-2.85 1.534zm.965-2.045c.998 0 1.803-.652 1.803-1.61v-.934c-.352.185-1.067.313-1.65.396-.888.134-1.386.518-1.386 1.15 0 .653.511.998 1.233.998zm15.824-7.939l-3.368 9.818h-3.58l-3.362-9.818h3.292l1.809 6.763h.102l1.815-6.763h3.292zm5.065 10.004c-3.087 0-4.966-1.912-4.966-5.057 0-3.042 1.905-5.075 4.87-5.075 2.787 0 4.756 1.777 4.756 5.011v.78h-6.545v.083c0 1.202.741 2.001 1.943 2.001.818 0 1.457-.351 1.7-1.003l2.87.083c-.358 1.93-2.052 3.177-4.628 3.177zm-1.885-6.156h3.637c-.013-1.004-.754-1.72-1.784-1.72-1.035 0-1.809.742-1.853 1.72zm11.125-7.12v13.09h-3.125V8.052h3.125z"
            fill="#556B7A"></path>
    </g>
  </symbol>
  <symbol viewBox="0 0 110 23" xmlns="http://www.w3.org/2000/svg" id="logo-footer">
    <title>740EC841-C905-449B-B052-CA271C2B3CDD</title>
    <path d="M13.344 15.62a5.301 5.301 0 0 1-7.054.391l2.302-2.298a5.295 5.295 0 0 1 .476-6.944 5.3 5.3 0 0 1 6.945-.478l-2.276 2.277a5.298 5.298 0 0 1-.393 7.052m9.039-5.012a11.163 11.163 0 0 0-.793-3.587c-.013-.037-.029-.07-.044-.107-.014-.034-.027-.07-.045-.107a11.28 11.28 0 0 0-4.93-5.433A11.121 11.121 0 0 0 11.197 0C6.58 0 2.605 2.806.893 6.805l-.05.115c-.011.03-.025.064-.036.097a11.25 11.25 0 0 0-.003 8.361l.043.11c.016.034.028.07.044.102a11.271 11.271 0 0 0 6.127 6 11.295 11.295 0 0 0 7.328.358 11.254 11.254 0 0 0 3.433-1.685 5.888 5.888 0 0 0 4.542 2.137h.079V11.197a9.66 9.66 0 0 0-.017-.59m11.075 6.266h-2.72L34.27 6.4h3.37l3.533 10.473h-2.72l-.69-2.2h-3.616l-.69 2.2zm1.294-4.122h2.408L35.994 9.04h-.082l-1.16 3.712zM44.625 6.4v10.473h-2.5V6.4h2.5zm5.839 2.618v1.841h-1.417v3.544c0 .465.23.629.634.629.19 0 .44-.051.548-.077l.378 1.805c-.24.072-.675.195-1.278.225-1.765.082-2.798-.716-2.782-2.306v-3.82h-1.038V9.02h1.038V7.135h2.5v1.882h1.417zm4.688 8.003c-2.47 0-3.973-1.529-3.973-4.045 0-2.434 1.524-4.06 3.896-4.06 2.23 0 3.805 1.421 3.805 4.009v.624h-5.236v.066c0 .962.593 1.6 1.554 1.6.655 0 1.166-.28 1.36-.802l2.296.067c-.286 1.544-1.641 2.541-3.702 2.541zm-1.508-4.924h2.91c-.011-.803-.604-1.376-1.428-1.376-.828 0-1.447.593-1.482 1.376zm8.36-3.079l1.293 2.588 1.34-2.588h2.52l-2.193 3.927 2.276 3.928h-2.5l-1.443-2.608-1.406 2.608h-2.537l2.281-3.928-2.168-3.927h2.536zm5.531-.562V6.4h8.852v2.056H73.21v8.417h-2.495V8.456h-3.18zm9.096 8.417V9.018h2.43v1.432h.081c.287-1.038.972-1.54 1.83-1.54.415 0 .799.113 1.1.287l-.736 2.056c-.22-.102-.46-.194-.762-.194-.788 0-1.437.618-1.442 1.549v4.265h-2.5zm8.13.133c-1.503 0-2.582-.757-2.582-2.312 0-1.738 1.33-2.326 2.92-2.46 1.34-.117 1.86-.22 1.86-.7v-.025c0-.527-.388-.824-1.001-.824-.66 0-1.074.307-1.182.808l-2.306-.082c.2-1.431 1.396-2.495 3.508-2.495 2 0 3.477.956 3.477 2.618v5.339h-2.352v-1.095h-.061c-.43.803-1.187 1.228-2.281 1.228zm.772-1.637c.798 0 1.442-.521 1.442-1.288v-.747c-.281.148-.854.25-1.32.317-.71.108-1.109.414-1.109.92 0 .522.41.798.987.798zm12.6-6.35l-2.696 7.854h-2.863l-2.69-7.855h2.633l1.448 5.41h.081l1.453-5.41h2.633zm4.191 8.002c-2.47 0-3.973-1.529-3.973-4.045 0-2.434 1.524-4.06 3.897-4.06 2.23 0 3.804 1.421 3.804 4.009v.624h-5.236v.066c0 .962.593 1.6 1.554 1.6.655 0 1.166-.28 1.36-.802l2.297.067c-.287 1.544-1.642 2.541-3.703 2.541zm-1.508-4.924h2.91c-.01-.803-.604-1.376-1.427-1.376-.829 0-1.447.593-1.483 1.376zm8.84-5.697v10.473h-2.5V6.4h2.5z"
          fill="#7A88A4" fill-rule="evenodd"></path>
  </symbol>
  <symbol viewBox="0 0 8 13" xmlns="http://www.w3.org/2000/svg" id="phone">
    <title>039DCD75-C7C7-4F51-A76A-A132C43545AA</title>
    <path d="M1 0h6a1 1 0 0 1 1 1v11a1 1 0 0 1-1 1H1a1 1 0 0 1-1-1V1a1 1 0 0 1 1-1zm0 2v9h6V2H1z" fill="#7A88A4"></path>
  </symbol>
  <symbol viewBox="0 0 106 106" xmlns="http://www.w3.org/2000/svg" id="successful-booking">
    <title>C99DC813-173C-4C6D-90BE-E2216887AD68</title>
    <g fill="#62C57B">
      <circle fill-opacity=".195" cx="53" cy="53" r="53"></circle>
      <path d="M77.2 31.4l6.37 6.364a2 2 0 0 1-.013 2.843L43.374 80 24.442 61.405a2 2 0 0 1-.011-2.843l6.376-6.36a2 2 0 0 1 2.814-.01l9.762 9.588 31.004-30.394a2 2 0 0 1 2.814.013z"></path>
    </g>
  </symbol>
</svg>
